<svg width="32" height="32" viewBox="0 0 32 32" fill="none" xmlns="http://www.w3.org/2000/svg">
<path d="M28 15V27C28 27.2653 27.8946 27.5196 27.7071 27.7072C27.5196 27.8947 27.2652 28 27 28H20C19.7348 28 19.4804 27.8947 19.2929 27.7072C19.1054 27.5196 19 27.2653 19 27V20.5C19 20.3674 18.9473 20.2403 18.8536 20.1465C18.7598 20.0527 18.6326 20 18.5 20H13.5C13.3674 20 13.2402 20.0527 13.1464 20.1465C13.0527 20.2403 13 20.3674 13 20.5V27C13 27.2653 12.8946 27.5196 12.7071 27.7072C12.5196 27.8947 12.2652 28 12 28H5C4.73478 28 4.48043 27.8947 4.29289 27.7072C4.10536 27.5196 4 27.2653 4 27V15C4.00025 14.4697 4.21112 13.9612 4.58625 13.5863L14.5863 3.5863C14.9613 3.21151 15.4698 3.00098 16 3.00098C16.5302 3.00098 17.0387 3.21151 17.4137 3.5863L27.4137 13.5863C27.7889 13.9612 27.9998 14.4697 28 15Z" fill="#1E1E1E"/>
</svg>
